<svg xmlns="http://www.w3.org/2000/svg" viewBox="0 0 616.91 340.02"><defs><style>.a{fill:#d9a5cb;opacity:0.42;}.b{fill:#f1c1da;stroke:#543193;stroke-miterlimit:10;stroke-width:7px;}.c{fill:#b64b9c;opacity:0.45;}</style></defs><path class="a" d="M558.06,702.84c-32-17-60.48-16.15-91.33,0-4.86,2.55-16.59,9.3-32.46,18.63L220.44,561.94c-4.12,5-8.21,10.16-9.74,20.22v189.7L813.31,747c.82-47.76.82-109.51.82-149.87,0-21.82-3.89-30.86-11.69-36l-212,160.29C574.93,712.35,563.33,705.64,558.06,702.84Z" transform="translate(-203.55 -561.18)"/><path class="b" d="M817,585V862.7A37,37,0,0,1,814.13,877l-2.88-1.74c-2.9-1.77-7.94-4.81-14.61-8.85-42.12-25.48-149.9-90.61-206.22-123.78L814.69,572.15A37.2,37.2,0,0,1,817,585Zm-5.7,290.25c-2.9-1.77-7.94-4.81-14.61-8.85-42.12-25.48-149.9-90.61-206.22-123.78-15.49-9.12-27.09-15.83-32.36-18.63-32-17-60.48-16.15-91.33,0-4.86,2.55-16.59,9.3-32.46,18.63-56.19,33-164.59,98.3-206.9,123.8l-15.11,9.12L209.87,877c5,12.21,16.36,20.71,29.51,20.71H784.61c13.15,0,24.47-8.5,29.52-20.71ZM208.83,573.49A37.83,37.83,0,0,0,207.05,585V862.7A37,37,0,0,0,209.87,877l2.39-1.45,15.11-9.12c42.31-25.5,150.71-90.79,206.9-123.8Z" transform="translate(-203.55 -561.18)"/><path class="c" d="M781.38,870.82H242.6c-17.28,0-31.38-14.7-32.25-33.18,0,.6,0,1.2,0,1.81V860.7c0,20.95,8.65,35,32.3,35H781.38c17.83,0,33.16-14.34,32.29-35V839.45c0-.61,0-1.21,0-1.81C812.76,856.12,798.65,870.82,781.38,870.82Z" transform="translate(-203.55 -561.18)"/></svg>